<?xml version="1.0" encoding="utf-8"?>
<!-- Generator: Adobe Illustrator 23.0.1, SVG Export Plug-In . SVG Version: 6.00 Build 0)  -->
<svg version="1.1" id="Layer_1" xmlns="http://www.w3.org/2000/svg" xmlns:xlink="http://www.w3.org/1999/xlink" x="0px" y="0px"
	 viewBox="0 0 1000 1000" style="enable-background:new 0 0 1000 1000;" xml:space="preserve">
<style type="text/css">
	.st0{fill:#1B1918;}
	.st1{fill:#FFFFFF;}
</style>
<g>
	<path class="st0" d="M343.4,500c0,81.4-66,147.4-147.4,147.4c-81.4,0-147.4-66-147.4-147.4s66-147.4,147.4-147.4
		S343.4,418.6,343.4,500"/>
	<path class="st1" d="M198.5,442.6l38.1,94.1L179,491.4L198.5,442.6z M266.2,558.5l-58.7-141.2c-1.7-4.1-4.9-6.2-9.1-6.2
		s-7.7,2.2-9.3,6.2l-64.4,154.9h22l25.5-63.9l76.1,61.5c3.1,2.5,5.3,3.6,8.1,3.6c5.7,0,10.8-4.3,10.8-10.5
		C267.2,561.8,266.8,560.2,266.2,558.5L266.2,558.5z"/>
	<path class="st0" d="M545.4,544.1c-1.5,0-3.2-0.4-4.3-1.9l-48.9-64.3v65.5h-11.1v-80.7c0-3.3,2.7-5.8,5.7-5.8
		c1.8,0,3.3,0.5,4.4,2.1l48.7,64.1v-65.3h11.1v80.6c0,3.1-2.4,5.6-5.5,5.7C545.5,544.1,545.4,544.1,545.4,544.1 M609.9,544.9
		c-11.1,0-22.8-2.3-33.7-6.4l2.7-9.2c10,3.3,20.9,5.5,31,5.5c14,0,21.4-5,21.4-12.1c0-6.4-5.7-9.6-25.3-18.9
		c-19.6-9.3-27.3-15.2-27.3-26.7c0-14.5,11.1-20.4,32.2-20.4c8.7,0,22.2,1.8,29.9,4.1l-1.8,9.5c-9.1-2.2-18.5-3.3-27.9-3.5
		c-14.8,0-20.9,2.8-20.9,9.9c0,6.9,4.4,9.9,25.2,19.5c21.9,10.2,27.5,15.3,27.5,25.8C642.8,537.3,628.3,544.9,609.9,544.9
		 M667.9,457.7h11.5v85.6h-11.5V457.7z M756.3,503.5h-28.6v29h28.6c9.7,0,15.7-6.2,15.7-14.8C772,509.7,765.8,503.5,756.3,503.5
		 M750.7,466.5h-23v27.4h23c9.2,0,16-5.9,16-14.1C766.7,471.7,760.9,466.5,750.7,466.5 M756.4,542.3H722c-3.3,0-5.8-2.6-5.8-5.8v-74
		c0-3.2,2.6-5.8,5.8-5.8h28.5c17.5,0,27.8,8.6,27.8,22.1c0,7.4-4.3,14.1-10.9,18.1c9.8,3,16.3,11.1,16.3,20.8
		C783.8,531.4,772.5,542.3,756.4,542.3 M817.4,541.4c-3.2,0-5.8-2.7-5.8-5.8v-79.9h11.5v75.2h46v10.4L817.4,541.4z M922.8,541.9
		c-23.6,0-37.7-8.7-37.7-26.4c0-8.4,4.7-16.3,13.8-20c-7.4-4.6-11.1-11.2-11.1-18.4c0-15.9,12.3-23.5,35.4-23.5c9.3,0,18.6,1,27.7,3
		l-1.3,9.5c-9.6-1.5-18.6-2.4-27.3-2.4c-14.9,0-22.9,4.1-22.9,14c0,7.8,7.3,14,17.1,14h19.7c2.7,0,4.9,2.1,4.9,4.8c0,0,0,0.1,0,0.1
		c0,2.8-2.1,5-4.9,5h-21.3c-11.1,0-18.2,5.5-18.2,14c0,12.5,11.5,16.2,25.9,16.2c7.8,0,18.5-1,27.2-3.1l1.6,9.4
		c-9.3,2.5-18.9,3.8-28.5,3.9 M418.1,474.7l20.2,50.5l-30.5-24.4L418.1,474.7z M453.9,536.8l-31-75.8c-0.9-2.2-2.7-3.3-4.8-3.3
		c-2.2,0-4.2,1.3-4.9,3.3l-33.9,85.4l11.5-2.3l13.5-34.3l40.2,33c1.6,1.3,2.8,1.9,4.3,1.9c3.1,0.1,5.6-2.4,5.7-5.5c0,0,0-0.1,0-0.1
		C454.4,538.4,454.2,537.6,453.9,536.8L453.9,536.8z"/>
</g>
</svg>
